<?xml version="1.0" encoding="utf-8"?>
<svg viewBox="0 0 192 530" fill="currentColor" xmlns="http://www.w3.org/2000/svg">
  <path d="M 51.061 243.508 C 51.061 219.194 70.772 199.483 95.086 199.483 C 119.401 199.483 139.11 219.194 139.11 243.508 C 139.11 267.822 119.401 287.533 95.086 287.533 C 70.772 287.533 51.061 267.822 51.061 243.508 Z M 206.754 244.348 C 199.113 236.706 186.725 236.706 179.083 244.348 L 126.115 297.316 L 64.057 297.316 L 11.088 244.348 C 3.448 236.706 -8.942 236.706 -16.583 244.348 C -24.224 251.988 -24.224 264.377 -16.583 272.02 L 41.278 329.878 L 41.278 492.982 C 41.278 503.788 50.037 512.549 60.844 512.549 L 70.628 512.549 C 81.434 512.549 90.194 503.788 90.194 492.982 L 90.194 424.499 L 99.978 424.499 L 99.978 492.982 C 99.978 503.788 108.737 512.549 119.544 512.549 L 129.328 512.549 C 140.134 512.549 148.893 503.788 148.893 492.982 L 148.893 329.878 L 206.754 272.019 C 214.396 264.377 214.396 251.988 206.754 244.348 Z" style=""/>
</svg>